<svg width="514" height="294" viewBox="0 0 514 294" fill="none" xmlns="http://www.w3.org/2000/svg">
<path d="M20.92 293.42C18.1333 293.42 15.22 292.913 12.18 291.9C9.14 290.887 6.48 289.113 4.2 286.58C1.92 284.3 0.78 282.147 0.78 280.12C0.78 278.853 1.28667 277.587 2.3 276.32C3.06 275.053 3.94667 273.787 4.96 272.52C7.24 269.733 11.5467 265.933 17.88 261.12C24.2133 256.56 31.4333 251.367 39.54 245.54L28.9 255.42C27.8867 256.433 26.8733 257.827 25.86 259.6C25.1 261.627 25.2267 262.133 26.24 261.12C28.52 258.333 33.84 253.647 42.2 247.06C50.56 240.22 59.4267 233.253 68.8 226.16L39.54 245.54C48.1533 238.953 57.02 232.367 66.14 225.78C75.26 219.193 83.4933 213.24 90.84 207.92C98.44 202.6 104.013 198.927 107.56 196.9C107.813 196.647 108.193 196.52 108.7 196.52C109.713 196.52 110.22 196.9 110.22 197.66C110.22 198.673 109.207 199.56 107.18 200.32C104.14 201.587 98.9467 204.753 91.6 209.82C84.5067 214.633 76.9067 220.08 68.8 226.16C78.68 219.573 88.0533 213.62 96.92 208.3C106.04 202.727 113.007 198.547 117.82 195.76C114.78 193.733 109.84 191.453 103 188.92C96.16 186.387 88.3067 183.347 79.44 179.8C70.8267 176 61.96 171.567 52.84 166.5C43.9733 161.433 36.12 155.48 29.28 148.64C25.9867 145.6 23.58 142.433 22.06 139.14C20.7933 135.593 20.16 132.173 20.16 128.88C20.16 121.027 23.3267 112.92 29.66 104.56C36.2467 96.2 44.86 87.9667 55.5 79.86C66.3933 71.7533 78.1733 64.1533 90.84 57.06C96.92 53.7667 103.127 50.6 109.46 47.56C116.047 44.2667 122.507 41.2267 128.84 38.44C121.747 40.9733 114.78 43.6333 107.94 46.42C101.1 49.2067 94.5133 52.12 88.18 55.16C87.9267 55.4133 87.6733 55.54 87.42 55.54C87.1667 55.54 87.04 55.54 87.04 55.54L93.88 51.36C107.307 44.7733 120.86 39.0733 134.54 34.26C148.473 29.1933 161.647 24.76 174.06 20.96C166.713 23.24 159.24 25.9 151.64 28.94C144.04 31.7267 136.44 34.8933 128.84 38.44C143.787 33.12 158.733 28.56 173.68 24.76C188.88 20.7067 202.94 17.6667 215.86 15.64C228.78 13.36 239.42 12.0933 247.78 11.84C252.593 11.5867 255 10.9533 255 9.93999C255 9.17999 253.733 8.79998 251.2 8.79998C242.587 9.05331 232.2 9.93998 220.04 11.46C207.88 12.98 194.707 15.5133 180.52 19.06C193.947 15.26 206.613 12.22 218.52 9.93999C230.68 7.65999 241.193 6.51999 250.06 6.51999C254.62 6.51999 258.8 6.89999 262.6 7.66C265.893 8.16666 268.807 10.32 271.34 14.12C273.873 17.6666 276.153 21.8466 278.18 26.66C280.207 31.22 281.6 35.5267 282.36 39.58L282.74 38.44C283.753 36.6667 284.387 35.1467 284.64 33.88C284.893 32.36 285.4 30.9667 286.16 29.7C286.667 28.94 287.807 29.9533 289.58 32.74C291.607 35.5267 293.38 38.6933 294.9 42.24C296.673 45.7866 297.307 48.8267 296.8 51.36C296.04 55.92 293.633 60.9866 289.58 66.56C285.527 71.88 280.713 77.0733 275.14 82.14C269.82 87.2067 264.373 91.3867 258.8 94.68C253.48 97.9733 248.793 99.62 244.74 99.62C243.727 99.62 242.46 99.3667 240.94 98.86C243.98 96.3267 246.767 93.6667 249.3 90.88C251.833 88.0933 254.24 85.3067 256.52 82.52C246.893 91.1333 236 99.3667 223.84 107.22C211.933 114.82 200.533 121.027 189.64 125.84C178.747 130.653 170.133 133.06 163.8 133.06C160.507 133.06 158.86 132.427 158.86 131.16C158.86 129.893 160.253 128.373 163.04 126.6C165.827 124.573 167.853 123.18 169.12 122.42C175.2 119.633 182.673 115.073 191.54 108.74C200.66 102.407 209.907 95.44 219.28 87.84C228.653 79.9867 236.887 72.5133 243.98 65.42C251.327 58.0733 256.267 52.12 258.8 47.56C259.053 45.0267 257.153 43.2533 253.1 42.24C249.047 41.2266 243.727 40.72 237.14 40.72C228.78 40.72 218.647 41.6066 206.74 43.38C195.087 45.1533 182.8 47.6866 169.88 50.98C156.96 54.2733 144.547 58.2 132.64 62.76C120.733 67.32 110.347 72.5133 101.48 78.34C95.4 81.6333 89.32 85.8133 83.24 90.88C77.16 95.6933 72.0933 100.887 68.04 106.46C63.9867 112.033 61.96 117.48 61.96 122.8C61.96 127.107 63.86 131.16 67.66 134.96C77.7933 144.08 88.6867 151.68 100.34 157.76C112.247 163.84 123.14 169.287 133.02 174.1C143.153 178.66 150.5 183.473 155.06 188.54C156.327 189.807 157.213 191.707 157.72 194.24C158.48 196.773 158.86 199.433 158.86 202.22C158.86 207.033 158.1 211.593 156.58 215.9C155.06 220.207 152.907 222.613 150.12 223.12C128.84 227.427 110.6 232.62 95.4 238.7C80.4533 244.78 68.2933 250.733 58.92 256.56C49.5467 262.387 42.58 267.2 38.02 271C33.7133 274.8 31.3067 276.573 30.8 276.32C32.8267 279.107 33.84 281.767 33.84 284.3C33.84 287.087 32.5733 289.24 30.04 290.76C27.5067 292.533 24.4667 293.42 20.92 293.42ZM174.06 20.96L175.58 20.58H176.34L177.48 20.2L178.24 19.82C179 19.5667 179.38 19.44 179.38 19.44C179.38 19.44 179.76 19.3133 180.52 19.06C180.52 19.06 180.393 19.06 180.14 19.06C180.14 19.06 179.507 19.3133 178.24 19.82C177.987 19.82 177.733 19.9467 177.48 20.2C176.973 20.2 176.593 20.3267 176.34 20.58C176.087 20.58 175.833 20.7067 175.58 20.96C175.327 20.96 175.327 20.8333 175.58 20.58C175.073 20.8333 174.567 20.96 174.06 20.96ZM250.778 263.02C244.698 263.02 239.125 262.133 234.058 260.36C229.245 258.84 226.838 256.56 226.838 253.52C226.838 251.493 227.852 249.847 229.878 248.58C231.905 247.313 234.185 246.68 236.718 246.68C219.998 243.133 208.092 237.053 200.998 228.44C194.158 219.573 190.738 209.313 190.738 197.66C190.738 188.033 192.638 177.9 196.438 167.26C200.492 156.367 205.685 145.853 212.018 135.72C225.445 114.187 239.885 96.96 255.338 84.04C271.045 71.12 288.398 59.34 307.398 48.7C302.585 50.98 297.645 53.3867 292.578 55.92C287.765 58.2 283.205 60.6067 278.898 63.14C277.125 64.1533 275.605 64.66 274.338 64.66C273.325 64.66 273.705 64.1533 275.478 63.14C283.838 58.3267 293.718 53.26 305.118 47.94C316.518 42.3667 326.525 37.5533 335.138 33.5C356.925 23.1133 378.965 15.0066 401.258 9.17998C423.552 3.35331 443.058 0.439977 459.778 0.439977C469.658 0.439977 478.018 1.57998 484.858 3.85998C487.898 8.67333 490.052 13.1067 491.318 17.16C492.585 20.96 493.218 24.38 493.218 27.42C493.218 29.9533 492.838 32.1067 492.078 33.88C491.572 35.6533 491.065 37.1733 490.558 38.44C491.825 37.68 492.965 36.4133 493.978 34.64C495.245 32.8666 496.258 31.0933 497.018 29.32C497.778 27.5466 498.158 26.0266 498.158 24.76C498.412 23.4933 498.792 22.2267 499.298 20.96C499.805 20.2 501.198 20.7067 503.478 22.48C505.758 24.2533 507.912 26.5333 509.938 29.32C512.218 32.1067 513.232 34.64 512.978 36.92C512.725 41.2267 510.572 46.42 506.518 52.5C502.718 58.58 497.905 64.5333 492.078 70.36C486.505 75.9333 480.805 80.62 474.978 84.42C469.152 87.9667 464.085 89.4867 459.778 88.98C455.725 93.2867 449.772 98.48 441.918 104.56C434.065 110.64 425.325 116.593 415.698 122.42C406.325 128.247 397.205 133.187 388.338 137.24C379.472 141.293 372.125 143.447 366.298 143.7C365.032 142.94 362.752 140.913 359.458 137.62C356.165 134.327 353.125 130.653 350.338 126.6C347.552 122.293 346.158 118.367 346.158 114.82C346.158 114.06 346.412 112.92 346.918 111.4C347.932 109.627 350.085 106.333 353.378 101.52C356.672 96.7067 360.978 91.64 366.298 86.32C371.872 80.7467 378.585 76.44 386.438 73.4C387.958 72.64 389.098 72.26 389.858 72.26C391.125 72.26 391.252 73.2733 390.238 75.3C389.478 77.3267 386.438 81.2533 381.118 87.08C380.105 88.0933 378.078 90.2467 375.038 93.54C372.252 96.8333 369.592 100.253 367.058 103.8C364.778 107.347 363.638 110.387 363.638 112.92C363.638 115.96 366.172 117.1 371.238 116.34C378.078 115.327 385.805 112.92 394.418 109.12C403.285 105.32 412.152 100.76 421.018 95.44C429.885 90.12 438.372 84.5467 446.478 78.72C454.585 72.8933 461.425 67.32 466.998 62C476.372 52.88 481.058 45.7867 481.058 40.72C481.058 37.4267 479.538 35.02 476.498 33.5C473.712 31.98 469.785 31.22 464.718 31.22C463.705 31.22 462.438 31.3467 460.918 31.6C459.652 31.6 458.258 31.7266 456.738 31.98C442.045 34.0066 426.212 37.3 409.238 41.86C392.518 46.42 375.418 52.5 357.938 60.1C340.458 67.4467 323.612 76.44 307.398 87.08C291.438 97.4667 276.872 109.627 263.698 123.56C250.525 137.24 239.758 152.947 231.398 170.68C225.572 182.84 222.658 193.353 222.658 202.22C222.658 210.073 225.065 216.407 229.878 221.22C234.945 225.78 243.178 228.06 254.578 228.06C264.205 228.06 276.492 226.033 291.438 221.98C306.638 217.927 324.752 211.213 345.778 201.84C340.965 204.12 336.658 206.147 332.858 207.92C329.058 209.44 325.765 210.833 322.978 212.1C320.698 213.113 317.152 214.507 312.338 216.28C307.778 217.8 303.725 219.193 300.178 220.46C296.632 221.473 295.112 221.98 295.618 221.98C299.925 221.98 305.625 220.84 312.718 218.56C320.065 216.28 327.412 213.493 334.758 210.2C342.358 206.907 348.312 203.993 352.618 201.46C358.445 198.42 364.525 195.127 370.858 191.58C377.192 187.78 383.525 184.107 389.858 180.56C382.005 184.613 374.278 188.413 366.678 191.96C359.332 195.507 352.365 198.8 345.778 201.84L354.138 197.66C355.912 196.647 359.332 194.747 364.398 191.96C369.718 188.92 375.798 185.5 382.638 181.7C389.478 177.647 396.445 173.72 403.538 169.92C410.632 165.867 416.838 162.32 422.158 159.28C427.732 155.987 431.785 153.707 434.318 152.44C432.292 154.467 426.972 158.14 418.358 163.46C409.998 168.78 400.498 174.48 389.858 180.56C406.578 171.947 425.072 161.94 445.338 150.54C448.885 148.513 451.418 147.5 452.938 147.5C454.965 147.5 455.345 148.767 454.078 151.3C453.065 153.58 450.532 156.873 446.478 161.18C438.625 169.033 428.238 177.647 415.318 187.02C402.398 196.14 388.212 205.26 372.758 214.38C357.305 223.247 341.598 231.353 325.638 238.7C309.678 245.793 294.732 251.24 280.798 255.04V255.42C280.798 256.433 279.912 257.573 278.138 258.84C275.352 260.36 271.298 261.373 265.978 261.88C260.658 262.64 255.592 263.02 250.778 263.02ZM311.578 47.94C328.045 40.34 345.525 33.5 364.018 27.42C382.765 21.34 400.752 16.6533 417.978 13.36C435.205 9.81333 449.772 8.03999 461.678 8.03999C465.225 8.03999 466.998 7.78665 466.998 7.27998C466.998 6.77332 466.112 6.39332 464.338 6.13999C462.818 5.63332 461.172 5.50665 459.398 5.76C452.052 6.26666 442.045 7.40665 429.378 9.17998C416.965 10.7 403.285 13.2333 388.338 16.78C373.392 20.3267 358.445 25.3933 343.498 31.98C338.685 34.26 333.365 36.7933 327.538 39.58C321.712 42.3667 316.392 45.1533 311.578 47.94Z" fill="white"/>
</svg>
